<svg width="150" height="49" viewBox="0 0 150 49" fill="none" xmlns="http://www.w3.org/2000/svg">
<path d="M31.2407 22.0986C29.9129 22.0986 28.8378 23.1731 28.8378 24.5C28.8378 25.8269 29.9129 26.9014 31.2407 26.9014C32.5685 26.9014 33.6436 25.8269 33.6436 24.5C33.6436 23.1731 32.5685 22.0986 31.2407 22.0986ZM13.4392 0H2.49431C1.11814 0 0 1.11742 0 2.49271V13.4305C0 17.9996 2.28735 22.0395 5.77347 24.4812C2.28735 26.9068 0 30.9359 0 35.4942V49H13.5144C20.914 49 26.9348 42.9831 26.9348 35.5883V28.2256C26.9348 26.8262 26.4617 25.5342 25.6715 24.5C26.4644 23.4658 26.9348 22.1738 26.9348 20.7744V13.487C26.9348 6.04912 20.8818 0 13.4392 0ZM22.0967 35.5909C22.0967 40.3185 18.2477 44.1677 13.5144 44.1677H4.8381V35.4969C4.8381 30.7694 8.68708 26.9202 13.4204 26.9202H20.7877C21.5107 26.9202 22.0967 27.5084 22.0967 28.2283V35.5909ZM22.0967 20.7744C22.0967 21.4969 21.5081 22.0825 20.7877 22.0825H13.4956C8.72202 22.0825 4.8381 18.2011 4.8381 13.4305V4.835H13.4392C18.2128 4.835 22.0967 8.71642 22.0967 13.487V20.7744ZM148.952 18.1339C148.253 16.7801 147.269 15.7191 146.003 14.9482C144.737 14.1773 143.259 13.7905 141.571 13.7905C139.62 13.7905 138.165 14.1316 137.203 14.8166C136.241 15.5015 135.588 16.2214 135.238 16.9762H134.454V14.1397H129.038V35.7897H134.54V24.7901C134.54 22.7809 135.005 21.2176 135.937 20.0975C136.87 18.9774 138.179 18.416 139.867 18.416C141.353 18.416 142.496 18.8243 143.297 19.6381C144.098 20.452 144.498 21.6742 144.498 23.3047V35.787H150V22.8668C150 21.0618 149.651 19.485 148.952 18.1312V18.1339ZM120.055 14.9482C118.482 14.0027 116.633 13.5299 114.507 13.5299C112.381 13.5299 110.459 13.9893 108.83 14.9052C107.199 15.8212 105.933 17.1159 105.03 18.7893C104.127 20.4628 103.675 22.4344 103.675 24.7041V25.2279C103.675 27.4977 104.135 29.4693 105.051 31.1427C105.968 32.8162 107.25 34.1109 108.895 35.0269C110.54 35.9428 112.44 36.4022 114.596 36.4022C116.577 36.4022 118.206 36.0879 119.488 35.4647C120.77 34.8388 121.794 34.084 122.568 33.1949C123.339 32.3085 123.928 31.4866 124.337 30.7291L119.837 28.3734C119.458 29.1873 118.904 29.9313 118.179 30.6002C117.45 31.269 116.316 31.6048 114.773 31.6048C113.23 31.6048 111.978 31.1401 110.93 30.208C109.881 29.2759 109.328 28.0698 109.271 26.5844H125.038V24.7068C125.038 22.4962 124.603 20.5541 123.726 18.8807C122.853 17.2072 121.63 15.8991 120.058 14.9536L120.055 14.9482ZM109.312 22.4774C109.516 21.2256 110.053 20.2237 110.927 19.4662C111.8 18.7088 112.98 18.33 114.464 18.33C115.948 18.33 117.047 18.7088 117.937 19.4662C118.824 20.2237 119.326 21.2283 119.445 22.4774H109.312ZM71.6846 14.6662C70.9427 15.0744 70.4105 15.7137 70.0907 16.5867H69.3058V14.1424H63.8898V35.7924H69.3918V23.4847C69.3918 21.9428 69.8434 20.8012 70.7465 20.0572C71.6496 19.3158 72.8 18.9451 74.1977 18.9451H76.907V14.0564H74.2864C73.2973 14.0564 72.4291 14.2606 71.6872 14.6662H71.6846ZM95.6144 14.9482C94.042 14.0027 92.1927 13.5299 90.0667 13.5299C87.9406 13.5299 86.0188 13.9893 84.3899 14.9052C82.7584 15.8212 81.4925 17.1159 80.5893 18.7893C79.6862 20.4628 79.2347 22.4344 79.2347 24.7041V25.2279C79.2347 27.4977 79.6943 29.4693 80.6109 31.1427C81.5274 32.8162 82.8095 34.1109 84.4545 35.0269C86.0994 35.9428 87.9997 36.4022 90.1554 36.4022C92.1363 36.4022 93.7651 36.0879 95.0472 35.4647C96.3293 34.8388 97.3534 34.084 98.1275 33.1949C98.8989 32.3085 99.4875 31.4866 99.8961 30.7291L95.3966 28.3734C95.0176 29.1873 94.4639 29.9313 93.7382 30.6002C93.0098 31.269 91.8756 31.6048 90.3327 31.6048C88.7899 31.6048 87.5374 31.1401 86.4891 30.208C85.4409 29.2759 84.8872 28.0698 84.8308 26.5844H100.598V24.7068C100.598 22.4962 100.162 20.5541 99.2859 18.8807C98.4124 17.2072 97.1894 15.8991 95.617 14.9536L95.6144 14.9482ZM84.8711 22.4774C85.0753 21.2256 85.6129 20.2237 86.4865 19.4662C87.36 18.7088 88.54 18.33 90.0237 18.33C91.5073 18.33 92.6067 18.7088 93.4963 19.4662C94.3833 20.2237 94.8859 21.2283 95.0042 22.4774H84.8711ZM53.3051 16.7613H52.5203C52.0553 16.0038 51.3108 15.2786 50.2921 14.5802C49.2734 13.8818 47.7736 13.5326 45.7926 13.5326C44.016 13.5326 42.3791 13.9624 40.8793 14.8193C39.3795 15.6788 38.178 16.9144 37.2749 18.5288C36.3718 20.1431 35.9202 22.0852 35.9202 24.355V25.0533C35.9202 27.3231 36.3718 29.2652 37.2749 30.8795C38.178 32.4939 39.3795 33.7322 40.8793 34.589C42.3791 35.4486 44.016 35.8757 45.7926 35.8757C47.1312 35.8757 48.2386 35.7172 49.1121 35.3949C49.9857 35.0752 50.6845 34.675 51.2086 34.1942C51.7328 33.7134 52.1413 33.2406 52.4316 32.7759H53.2164V38.406C53.2164 39.279 52.8079 39.7141 51.9935 39.7141H39.4144V44.5142H53.9153C55.3721 44.5142 56.5359 44.071 57.4095 43.1819C58.283 42.2928 58.7211 41.1082 58.7211 39.6255V14.1424H53.3051V16.7613ZM53.3051 24.9217C53.3051 26.8718 52.738 28.3841 51.6011 29.4612C50.4668 30.5384 49.053 31.0756 47.365 31.0756C45.6771 31.0756 44.2633 30.5384 43.129 29.4612C41.9947 28.3841 41.4249 26.8718 41.4249 24.9217V24.4866C41.4249 22.5069 41.992 20.9893 43.129 19.9256C44.266 18.8645 45.6771 18.3327 47.365 18.3327C49.053 18.3327 50.5017 18.8645 51.6226 19.9256C52.7434 20.9893 53.3051 22.5096 53.3051 24.4866V24.9217Z" fill="#8CB161"/>
</svg>
