<svg width="32" height="32" viewBox="0 0 32 32" fill="none" xmlns="http://www.w3.org/2000/svg">
<path d="M2.86667 5.75734L2.26133 5.76134C2.06133 5.768 1.85733 5.77867 1.65867 5.81467C1.35843 5.86212 1.07374 5.98017 0.828032 6.15912C0.582324 6.33807 0.382614 6.5728 0.245333 6.844C0.152 7.028 0.0933333 7.21467 0.0586667 7.41734C0.0213333 7.61467 0.00933333 7.81734 0.00533333 8.01734L0 8.296V23.7053C0 23.7978 0.00133333 23.8898 0.004 23.9813C0.00933333 24.1813 0.0213333 24.3853 0.0573333 24.584C0.092 24.7831 0.155111 24.9738 0.246667 25.156C0.430828 25.5178 0.724908 25.8118 1.08667 25.996C1.27067 26.0893 1.45733 26.1493 1.66 26.1853C1.85733 26.2213 2.06 26.2333 2.26 26.2387L2.53733 26.2427H29.4627L29.7387 26.2387C29.9387 26.2333 30.1427 26.2213 30.3413 26.1853C30.54 26.1493 30.7293 26.0907 30.912 25.9973C31.275 25.8138 31.5698 25.519 31.7533 25.156C31.8467 24.972 31.9067 24.7853 31.9413 24.5827C31.9773 24.3853 31.9893 24.1827 31.9947 23.9827C31.9973 23.8902 31.9987 23.7978 31.9987 23.7053L32 23.3773V8.29467C32 8.20223 31.9982 8.11023 31.9947 8.01867C31.9921 7.81672 31.9743 7.61526 31.9413 7.416C31.8768 7.0148 31.6874 6.64415 31.4002 6.35668C31.113 6.06922 30.7425 5.87957 30.3413 5.81467C30.1421 5.7817 29.9406 5.76387 29.7387 5.76134C29.5374 5.75586 29.336 5.75452 29.1347 5.75734H2.86667ZM2.86667 6.44H29.456C29.5431 6.44 29.6307 6.44134 29.7187 6.444C29.872 6.44934 30.052 6.45734 30.2187 6.48667C30.364 6.51334 30.4853 6.55334 30.6013 6.612C30.8351 6.73096 31.025 6.92095 31.144 7.15467C31.205 7.27556 31.2473 7.40505 31.2693 7.53867C31.2987 7.70267 31.3067 7.88267 31.3107 8.03734C31.3133 8.12356 31.3147 8.21111 31.3147 8.3V23.7027C31.3147 23.7889 31.3133 23.876 31.3107 23.964C31.3067 24.1173 31.2987 24.2973 31.268 24.464C31.2388 24.6601 31.1631 24.8463 31.0471 25.0071C30.9311 25.1679 30.7782 25.2985 30.6013 25.388C30.4813 25.4488 30.3527 25.491 30.22 25.5133C30.0553 25.5379 29.8892 25.5521 29.7227 25.556L29.456 25.56H2.54133C2.45244 25.56 2.36533 25.5587 2.28 25.556C2.1126 25.5523 1.94561 25.538 1.78 25.5133C1.63467 25.4867 1.51333 25.4467 1.396 25.388C1.16108 25.2712 0.970934 25.0805 0.854667 24.8453C0.79363 24.7244 0.751367 24.595 0.729333 24.4613C0.702701 24.2969 0.688439 24.1306 0.686667 23.964L0.684 23.7013V8.29867L0.686667 8.036C0.692 7.884 0.7 7.70534 0.729333 7.536C0.756 7.392 0.796 7.27067 0.854667 7.15334C0.973846 6.92011 1.16381 6.73061 1.39733 6.612C1.51781 6.55109 1.64684 6.50883 1.78 6.48667C1.94667 6.45734 2.12667 6.448 2.28 6.444L2.54133 6.44H2.86667ZM9.14667 11.3733C8.74667 11.3947 8.256 11.6387 7.97333 11.9813C7.71867 12.2747 7.49333 12.7547 7.552 13.2053C8.00267 13.2453 8.452 12.98 8.736 12.648C9.00933 12.304 9.196 11.844 9.14667 11.3747V11.3733ZM12.0893 11.9333V19.2573H13.2253V16.7547H14.7987C16.236 16.7547 17.2453 15.7693 17.2453 14.3387C17.2453 12.912 16.256 11.932 14.8347 11.932L12.0893 11.9333ZM13.2253 12.892H14.5347C15.52 12.892 16.0827 13.42 16.0827 14.344C16.0827 15.2667 15.52 15.8 14.5307 15.8H13.2253V12.892ZM9.02 13.292C8.42 13.3053 7.91333 13.6653 7.62 13.6653C7.30667 13.6653 6.82933 13.3133 6.312 13.3227C5.9756 13.3316 5.64735 13.4282 5.35972 13.6029C5.07209 13.7775 4.83504 14.0243 4.672 14.3187C3.96933 15.5293 4.48667 17.3253 5.17067 18.312C5.50267 18.8 5.90267 19.3373 6.42933 19.3173C6.92667 19.2987 7.12267 18.9947 7.72667 18.9947C8.332 18.9947 8.508 19.3173 9.03333 19.308C9.58 19.2987 9.92267 18.82 10.2533 18.3307C10.6347 17.7747 10.7907 17.2373 10.8 17.2093C10.7907 17.1987 9.74667 16.7987 9.73733 15.5973C9.72667 14.592 10.5573 14.1133 10.596 14.084C10.1267 13.3907 9.396 13.3133 9.14267 13.2933L9.02 13.292ZM19.9587 13.8213C18.6387 13.8213 17.8173 14.532 17.756 15.496H18.792C18.888 15.0187 19.284 14.7147 19.9187 14.7147C20.588 14.7147 20.9893 15.0693 20.9893 15.6627V16.0747L19.5267 16.16C18.2587 16.232 17.5427 16.8053 17.5427 17.7387C17.5427 18.6987 18.2733 19.348 19.3187 19.348C20.02 19.348 20.6947 18.9733 21.004 18.3787H21.0293V19.2573H22.08V15.5773C22.08 14.5067 21.2533 13.8213 19.9587 13.8213ZM22.5453 13.9173L24.4733 19.2627C24.4733 19.2667 24.376 19.5827 24.376 19.592C24.2093 20.1387 23.936 20.3533 23.428 20.3533C23.336 20.3533 23.1533 20.3533 23.072 20.3333V21.2213C23.152 21.236 23.428 21.2467 23.5187 21.2467C24.6253 21.2467 25.1533 20.8307 25.6093 19.536L27.6093 13.9173H26.452L25.1027 18.2627H25.0827L23.732 13.916L22.5453 13.9173ZM20.9893 16.836V17.2573C20.9893 17.952 20.3893 18.48 19.624 18.48C19.0347 18.48 18.6493 18.176 18.6493 17.708C18.6493 17.252 19.02 16.9613 19.6747 16.9173L20.9893 16.836Z" fill="white"/>
</svg>
