<svg width="20" height="20" viewBox="0 0 20 20" fill="none" xmlns="http://www.w3.org/2000/svg">
<g clip-path="url(#clip0_1644_676)">
<path d="M19.0929 9.54647C19.0929 4.2741 14.8188 0 9.54647 0C4.2741 0 0 4.2741 0 9.54647C0 14.3113 3.49099 18.2608 8.05483 18.977V12.306H5.63093V9.54647H8.05483V7.44326C8.05483 5.05068 9.48009 3.72909 11.6607 3.72909C12.7048 3.72909 13.7976 3.91554 13.7976 3.91554V6.26487H12.5939C11.408 6.26487 11.0381 7.0008 11.0381 7.75651V9.54647H13.6858L13.2625 12.306H11.0381V18.977C15.602 18.2608 19.0929 14.3113 19.0929 9.54647Z" fill="#1877F2"/>
<path d="M13.2624 12.3059L13.6857 9.54638H11.038V7.75642C11.038 7.00147 11.408 6.26479 12.5938 6.26479H13.7976V3.91546C13.7976 3.91546 12.7051 3.729 11.6606 3.729C9.48003 3.729 8.05477 5.05059 8.05477 7.44318V9.54638H5.63086V12.3059H8.05477V18.9769C9.04318 19.1315 10.0496 19.1315 11.038 18.9769V12.3059H13.2624Z" fill="white"/>
</g>
<defs>
<clipPath id="clip0_1644_676">
<rect width="19.0929" height="19.0929" fill="white"/>
</clipPath>
</defs>
</svg>
