<svg width="20" height="20" viewBox="0 0 20 20" fill="none" xmlns="http://www.w3.org/2000/svg">
<g clip-path="url(#clip0_1644_1039)">
<path d="M18.9067 9.76647C18.9067 9.11753 18.8541 8.46508 18.7418 7.82666H9.7373V11.5028H14.8938C14.6798 12.6885 13.9923 13.7373 12.9855 14.4038V16.7891H16.0619C17.8684 15.1264 18.9067 12.6709 18.9067 9.76647Z" fill="#4285F4"/>
<path d="M9.73751 19.0936C12.3122 19.0936 14.4836 18.2482 16.0656 16.789L12.9892 14.4037C12.1333 14.986 11.0284 15.3157 9.74102 15.3157C7.25048 15.3157 5.13878 13.6355 4.3811 11.3765H1.20654V13.8354C2.82715 17.0591 6.12798 19.0936 9.73751 19.0936Z" fill="#34A853"/>
<path d="M4.37747 11.3765C3.97758 10.1909 3.97758 8.90705 4.37747 7.72142V5.26245H1.20642C-0.147584 7.95995 -0.147584 11.138 1.20642 13.8355L4.37747 11.3765Z" fill="#FBBC04"/>
<path d="M9.7375 3.77854C11.0985 3.7575 12.414 4.26963 13.3996 5.20972L16.1252 2.48416C14.3994 0.863562 12.1088 -0.0274191 9.7375 0.000643326C6.12798 0.000643326 2.82714 2.03517 1.20654 5.26234L4.37759 7.72131C5.13177 5.45878 7.24697 3.77854 9.7375 3.77854Z" fill="#EA4335"/>
</g>
<defs>
<clipPath id="clip0_1644_1039">
<rect width="19.0929" height="19.0929" fill="white"/>
</clipPath>
</defs>
</svg>
