<svg width="32" height="32" viewBox="0 0 32 32" fill="none" xmlns="http://www.w3.org/2000/svg">
<g clip-path="url(#clip0_608_1371)">
<path d="M5.28398 9.64666C4.30433 9.64627 3.3439 9.91843 2.51009 10.4327C1.67629 10.947 1.002 11.6831 0.562643 12.5587C0.192365 13.2948 -0.000488281 14.1073 -0.000488281 14.9313C-0.000488281 15.7553 0.192365 16.5679 0.562643 17.304C1.002 18.1796 1.67629 18.9157 2.51009 19.43C3.3439 19.9442 4.30433 20.2164 5.28398 20.216C6.71064 20.216 7.91064 19.7467 8.78664 18.94C9.78398 18.02 10.36 16.66 10.36 15.052C10.3579 14.6918 10.3267 14.3324 10.2666 13.9773H5.28531V16.012H8.13864C8.08019 16.3369 7.95678 16.6466 7.77578 16.9227C7.59479 17.1988 7.35995 17.4355 7.08531 17.6187C6.61064 17.94 5.99998 18.124 5.28531 18.124C3.90664 18.124 2.73731 17.1947 2.31864 15.9427C2.09802 15.2865 2.09802 14.5762 2.31864 13.92C2.73731 12.6667 3.90664 11.7387 5.28531 11.7387C6.0387 11.726 6.76676 12.0106 7.31198 12.5307L8.82131 11.024C7.86557 10.1242 6.59656 9.63038 5.28398 9.64666ZM13.952 10.38V19.58H15.1333V15.8533H17.0866C17.8902 15.8533 18.5666 15.592 19.116 15.0693C19.3895 14.8243 19.6068 14.5229 19.7529 14.186C19.8991 13.8491 19.9706 13.4845 19.9626 13.1173C19.9682 12.7521 19.8955 12.3898 19.7495 12.055C19.6034 11.7202 19.3874 11.4204 19.116 11.176C18.8469 10.916 18.5291 10.7117 18.1809 10.5748C17.8326 10.438 17.4607 10.3713 17.0866 10.3787L13.952 10.38ZM17.188 11.5133C17.3941 11.5172 17.5973 11.5623 17.7858 11.6459C17.9742 11.7294 18.1441 11.8498 18.2853 12C18.4355 12.1461 18.5549 12.3209 18.6365 12.5139C18.718 12.707 18.76 12.9144 18.76 13.124C18.76 13.3336 18.718 13.541 18.6365 13.7341C18.5549 13.9271 18.4355 14.1019 18.2853 14.248C18.1343 14.4044 17.9523 14.5276 17.7509 14.6096C17.5496 14.6915 17.3333 14.7305 17.116 14.724H15.1333V11.5133H17.188ZM22.6866 13.08C21.5649 13.08 20.7173 13.4911 20.144 14.3133L21.1853 14.968C21.5693 14.4115 22.0915 14.1333 22.752 14.1333C23.1732 14.1275 23.581 14.2814 23.8933 14.564C24.0479 14.6907 24.172 14.8506 24.2565 15.0318C24.341 15.2129 24.3836 15.4108 24.3813 15.6107V15.88C23.928 15.6222 23.3502 15.4938 22.648 15.4947C21.8249 15.4947 21.1675 15.6876 20.676 16.0733C20.1826 16.4573 19.9364 16.9751 19.9373 17.6267C19.9323 17.9194 19.9926 18.2096 20.1136 18.4762C20.2347 18.7428 20.4136 18.9791 20.6373 19.168C21.104 19.5795 21.684 19.7853 22.3773 19.7853C23.1906 19.7853 23.8418 19.4253 24.3306 18.7053H24.3813V19.5787H25.512V15.7C25.512 14.8867 25.2595 14.2467 24.7546 13.78C24.248 13.3133 23.5586 13.08 22.6866 13.08ZM25.704 13.2853L28.2986 19.1813L26.8346 22.3547H28.0546L32 13.284H30.7133L28.8893 17.8053H28.8626L26.988 13.2853H25.704ZM22.8426 16.4427C23.5013 16.4427 24.0151 16.5893 24.384 16.8827C24.384 17.3787 24.1884 17.8111 23.7973 18.18C23.6233 18.3554 23.4162 18.4945 23.188 18.5893C22.9598 18.684 22.7151 18.7325 22.468 18.732C22.1348 18.7385 21.8096 18.6291 21.548 18.4227C21.4264 18.3344 21.3275 18.2185 21.2596 18.0845C21.1917 17.9505 21.1566 17.8022 21.1573 17.652C21.1573 17.3115 21.3186 17.024 21.6413 16.7893C21.9613 16.5582 22.3626 16.4427 22.8426 16.4427Z" fill="white"/>
</g>
<defs>
<clipPath id="clip0_608_1371">
<rect width="32" height="32" fill="white"/>
</clipPath>
</defs>
</svg>
