<svg width="38" height="38" viewBox="0 0 38 38" fill="none" xmlns="http://www.w3.org/2000/svg">
<path d="M15.8 9H24.2C27.4 9 30 11.6 30 14.8V23.2C30 24.7383 29.3889 26.2135 28.3012 27.3012C27.2135 28.3889 25.7383 29 24.2 29H15.8C12.6 29 10 26.4 10 23.2V14.8C10 13.2617 10.6111 11.7865 11.6988 10.6988C12.7865 9.61107 14.2617 9 15.8 9ZM15.6 11C14.6452 11 13.7295 11.3793 13.0544 12.0544C12.3793 12.7295 12 13.6452 12 14.6V23.4C12 25.39 13.61 27 15.6 27H24.4C25.3548 27 26.2705 26.6207 26.9456 25.9456C27.6207 25.2705 28 24.3548 28 23.4V14.6C28 12.61 26.39 11 24.4 11H15.6ZM25.25 12.5C25.5815 12.5 25.8995 12.6317 26.1339 12.8661C26.3683 13.1005 26.5 13.4185 26.5 13.75C26.5 14.0815 26.3683 14.3995 26.1339 14.6339C25.8995 14.8683 25.5815 15 25.25 15C24.9185 15 24.6005 14.8683 24.3661 14.6339C24.1317 14.3995 24 14.0815 24 13.75C24 13.4185 24.1317 13.1005 24.3661 12.8661C24.6005 12.6317 24.9185 12.5 25.25 12.5ZM20 14C21.3261 14 22.5979 14.5268 23.5355 15.4645C24.4732 16.4021 25 17.6739 25 19C25 20.3261 24.4732 21.5979 23.5355 22.5355C22.5979 23.4732 21.3261 24 20 24C18.6739 24 17.4021 23.4732 16.4645 22.5355C15.5268 21.5979 15 20.3261 15 19C15 17.6739 15.5268 16.4021 16.4645 15.4645C17.4021 14.5268 18.6739 14 20 14ZM20 16C19.2044 16 18.4413 16.3161 17.8787 16.8787C17.3161 17.4413 17 18.2044 17 19C17 19.7956 17.3161 20.5587 17.8787 21.1213C18.4413 21.6839 19.2044 22 20 22C20.7956 22 21.5587 21.6839 22.1213 21.1213C22.6839 20.5587 23 19.7956 23 19C23 18.2044 22.6839 17.4413 22.1213 16.8787C21.5587 16.3161 20.7956 16 20 16Z" fill="white"/>
</svg>
