<svg width="32" height="32" viewBox="0 0 32 32" fill="none" xmlns="http://www.w3.org/2000/svg">
<path d="M1.24493 21.9551L1.19 22.3858C1.16516 22.598 1.32772 22.7847 1.53844 22.7847H15.1482C15.3596 22.7847 15.5222 22.598 15.4981 22.3858L15.4417 21.9551C15.4078 21.6196 15.6456 21.3129 15.9707 21.278C16.2981 21.2416 16.5871 21.4872 16.621 21.8218L16.6736 22.2409C16.7798 23.1775 16.2635 24.0002 15.3438 24.0002H1.34352C0.423866 24.0002 -0.0924064 23.1783 0.0137078 22.2409L0.0663884 21.8218C0.101007 21.4872 0.389247 21.2416 0.715115 21.278C1.04098 21.3136 1.27805 21.6196 1.24493 21.9551Z" fill="white"/>
<path d="M13.8254 18.7074C14.4876 18.7089 15.0152 18.2123 15.0017 17.5585C14.9881 16.8892 14.3966 16.4569 13.7366 16.4562H12.4045C12.1095 16.4562 11.8671 16.2036 11.8671 15.8876C11.8671 15.5707 12.1087 15.3174 12.4045 15.3174H13.2948C13.8946 15.2926 14.3574 14.9185 14.386 14.3344C14.4161 13.7092 13.8939 13.2398 13.2549 13.2398H11.095L11.086 18.7081L13.8254 18.7074ZM15.463 14.3305C15.463 14.9006 15.2666 15.2237 14.9415 15.6211L14.9091 15.6614L14.9542 15.69C15.5977 16.0936 16.047 16.7041 16.0801 17.5609C16.1298 18.8375 15.0792 19.8934 13.8314 19.8911H10.5426C10.2228 19.8911 9.96387 19.6168 9.96387 19.2798V12.7138C9.96387 12.3752 10.2228 12.1025 10.5411 12.1025L13.2564 12.1103C14.4402 12.1111 15.463 13.0066 15.463 14.3305Z" fill="white"/>
<path d="M4.86286 17.6397L4.87792 17.6862L4.89447 17.6397C5.04725 17.2075 5.23088 16.7287 5.4258 16.2066C5.62674 15.6574 5.82692 15.1321 6.02711 14.6317C6.22956 14.1235 6.42071 13.6703 6.60359 13.2753C6.78571 12.8716 6.93698 12.5943 7.05363 12.4425C7.2335 12.2209 7.47132 12.1094 7.76708 12.1094H7.9033C8.08467 12.1094 8.22616 12.1582 8.33227 12.2511C8.42936 12.3387 8.4873 12.4394 8.50386 12.5548L9.35353 19.3394C9.35353 19.5144 9.30461 19.6492 9.20828 19.7499C9.11195 19.8437 8.97423 19.8901 8.79436 19.8901C8.61449 19.8901 8.4715 19.846 8.36689 19.76C8.25099 19.674 8.18477 19.5609 8.16821 19.4207C8.13961 19.1953 8.11327 18.9443 8.08693 18.6693C8.0493 18.395 7.91685 17.2113 7.87922 16.9131C7.8446 16.6056 7.60528 14.689 7.524 13.9926L7.51647 13.9337L7.24404 14.5217C7.15147 14.7239 7.05138 14.9671 6.9415 15.2499C6.83313 15.5326 6.72175 15.8317 6.61262 16.1469C6.49371 16.4529 5.96766 18.0007 5.96766 18.0007C5.91874 18.1409 5.82617 18.4237 5.74263 18.684C5.65759 18.9427 5.58008 19.1767 5.559 19.2216C5.43408 19.4772 5.19024 19.6461 4.88017 19.6484C4.56635 19.6469 4.32251 19.4772 4.19909 19.2216C4.17651 19.1767 4.09899 18.942 4.01395 18.684C3.92891 18.4237 3.8386 18.1409 3.78742 18.0007C3.78742 18.0007 3.26137 16.4529 3.14396 16.1469C3.03409 15.8317 2.92421 15.5334 2.81433 15.2499C2.70446 14.9671 2.60436 14.7239 2.51405 14.5217L2.24011 13.9337L2.23409 13.9926C2.15131 14.689 1.91424 16.6056 1.87812 16.9131C1.84049 17.2113 1.70804 18.395 1.67191 18.6693C1.64407 18.9443 1.61697 19.1953 1.58837 19.4207C1.57182 19.5609 1.50559 19.674 1.3912 19.76C1.28508 19.846 1.14285 19.8901 0.962226 19.8901C0.782358 19.8901 0.646141 19.8437 0.54981 19.7499C0.453479 19.6492 0.404561 19.5129 0.403809 19.3394L1.25348 12.5548C1.27229 12.4394 1.32873 12.3387 1.42582 12.2511C1.53118 12.1582 1.67492 12.1094 1.85328 12.1094H1.99101C2.28752 12.1094 2.52459 12.2217 2.7037 12.4425C2.82111 12.5943 2.97087 12.8709 3.15375 13.2753C3.33738 13.6703 3.52853 14.1235 3.73023 14.6317C3.93041 15.1321 4.13135 15.6574 4.33305 16.2066C4.52646 16.7287 4.71009 17.2075 4.86286 17.6397Z" fill="white"/>
<path d="M3.19539 8H13.5329C14.5067 8 14.9914 8.75298 15.105 9.74533L15.1487 10.0629C15.1833 10.4038 14.9402 10.709 14.6151 10.7446C14.2892 10.7803 13.9965 10.5339 13.9626 10.1931L13.9212 9.88942C13.8776 9.51215 13.7225 9.22165 13.35 9.22165H3.37827C3.00574 9.22165 2.85071 9.51215 2.80706 9.88942L2.76717 10.1931C2.7333 10.5339 2.4413 10.7811 2.11317 10.7446C1.78731 10.709 1.54422 10.4038 1.57959 10.0629L1.62324 9.74533C1.73839 8.7522 2.2223 8 3.19539 8Z" fill="white"/>
<path d="M21.79 15.1504C21.7185 15.4347 21.6447 15.7383 21.5672 16.0614C21.4897 16.3829 21.4122 16.692 21.3362 16.9863C21.2609 17.2807 21.1902 17.5379 21.1209 17.761C21.0532 17.9833 20.996 18.1352 20.9508 18.2173C20.8711 18.3629 20.7296 18.435 20.5287 18.435C20.4722 18.435 20.4 18.4233 20.3089 18.3993C20.2186 18.3761 20.1441 18.3102 20.0824 18.2026C20.0372 18.1205 19.9808 17.9609 19.9123 17.7223C19.8446 17.4845 19.7738 17.2118 19.697 16.9011C19.6218 16.5913 19.5473 16.2628 19.4705 15.9165C19.3953 15.5702 19.3268 15.2503 19.2666 14.9513C19.2064 14.6554 19.1552 14.4005 19.1153 14.1921C19.0754 13.9822 19.0528 13.859 19.0476 13.8164C19.0423 13.7908 19.04 13.773 19.04 13.7622V13.7312C19.04 13.6436 19.0716 13.5716 19.1379 13.5174C19.2026 13.4631 19.2839 13.436 19.3795 13.436C19.4705 13.436 19.5435 13.457 19.5992 13.4949C19.6541 13.5321 19.694 13.6018 19.7189 13.6994C19.7189 13.7095 19.7339 13.7854 19.7603 13.9249C19.7889 14.0635 19.8242 14.2425 19.8664 14.4586C19.91 14.6763 19.9574 14.918 20.0101 15.1868C20.0628 15.4556 20.1177 15.7283 20.1764 16.0048C20.2336 16.2798 20.2923 16.5463 20.3503 16.8066C20.4075 17.0638 20.4617 17.2869 20.5128 17.4721C20.5625 17.297 20.6175 17.0963 20.6792 16.8709C20.7394 16.647 20.8003 16.4139 20.8605 16.1753C20.9207 15.9343 20.9779 15.695 21.0344 15.4548C21.0893 15.2139 21.1405 14.9908 21.1894 14.7847C21.2368 14.5779 21.2782 14.3951 21.3128 14.2355C21.3475 14.0744 21.3753 13.9558 21.3964 13.8776C21.4212 13.78 21.4686 13.7025 21.5386 13.646C21.6109 13.5894 21.6952 13.56 21.796 13.56C21.9059 13.56 21.9969 13.591 22.0684 13.6498C22.1369 13.7095 22.1836 13.7862 22.2031 13.8776C22.2596 14.1309 22.319 14.4144 22.3845 14.7266C22.4492 15.038 22.5185 15.3549 22.5885 15.6748C22.66 15.9948 22.7337 16.3093 22.8075 16.6168C22.8835 16.9244 22.9565 17.197 23.0272 17.4341C23.0769 17.249 23.1318 17.0258 23.1898 16.7687C23.247 16.5084 23.3057 16.2434 23.3659 15.97C23.4268 15.6973 23.4848 15.4254 23.5397 15.1566C23.5962 14.8885 23.6458 14.6468 23.6925 14.4323C23.7377 14.2184 23.7738 14.0434 23.8016 13.9101C23.8295 13.7753 23.843 13.7056 23.843 13.7002C23.8679 13.6026 23.9077 13.5329 23.9642 13.4957C24.0191 13.457 24.0929 13.4368 24.1832 13.4368C24.278 13.4368 24.3593 13.4639 24.424 13.5181C24.4902 13.5724 24.5226 13.6444 24.5226 13.732V13.7629C24.5226 13.773 24.5203 13.7916 24.5151 13.8172C24.5113 13.8598 24.4865 13.983 24.4428 14.1929C24.4014 14.4013 24.3495 14.6561 24.2893 14.9521C24.2283 15.2503 24.1606 15.5695 24.0846 15.9134C24.0109 16.2566 23.9356 16.5835 23.8633 16.8926C23.7896 17.2025 23.7196 17.4759 23.6511 17.7107C23.5834 17.9446 23.5262 18.1042 23.481 18.1863C23.4208 18.2948 23.3448 18.3637 23.2515 18.3924C23.1574 18.421 23.0837 18.435 23.0287 18.435C23.0077 18.435 22.9791 18.4326 22.9377 18.4272C22.8978 18.421 22.8549 18.4117 22.809 18.3955C22.7638 18.3807 22.7187 18.356 22.6743 18.3226C22.6276 18.2878 22.593 18.2429 22.5681 18.1863C22.523 18.0887 22.4681 17.9252 22.4056 17.699C22.3431 17.4713 22.2746 17.2156 22.2016 16.9282C22.1294 16.6408 22.0564 16.3418 21.9864 16.0288C21.9157 15.7167 21.8494 15.4231 21.79 15.1504Z" fill="white"/>
<path d="M25.739 17.0015C25.663 17.2501 25.5967 17.4787 25.5388 17.6901C25.4801 17.9016 25.4266 18.0759 25.3762 18.2099C25.3198 18.3602 25.2099 18.4354 25.0436 18.4354C24.9277 18.4354 24.8434 18.4059 24.79 18.3463C24.7373 18.2859 24.7109 18.2099 24.7109 18.117C24.7109 18.0813 24.7162 18.0473 24.726 18.0155C24.7358 17.9861 24.7674 17.8792 24.8208 17.6987C24.8735 17.5189 24.942 17.2935 25.0285 17.0247C25.1136 16.7559 25.2084 16.4615 25.3107 16.1424C25.4146 15.8224 25.5207 15.5056 25.6321 15.1926C25.742 14.8796 25.8511 14.5876 25.9572 14.318C26.0626 14.0469 26.1612 13.8276 26.2507 13.6634C26.2921 13.5759 26.3455 13.5155 26.4133 13.4845C26.4818 13.4535 26.5736 13.438 26.6902 13.438C26.8016 13.438 26.8949 13.4574 26.9724 13.4922C27.0515 13.5294 27.1049 13.5914 27.135 13.6789C27.2065 13.8331 27.2915 14.0415 27.3886 14.3017C27.4865 14.5628 27.5903 14.8448 27.6972 15.1469C27.8063 15.449 27.9124 15.7581 28.0185 16.0719C28.1247 16.3872 28.2225 16.6807 28.3098 16.9519C28.3971 17.2222 28.4739 17.4539 28.5363 17.6452C28.5988 17.8366 28.6387 17.9605 28.6537 18.0155C28.6628 18.048 28.6688 18.0813 28.6688 18.117C28.6688 18.2099 28.6387 18.2859 28.5777 18.3463C28.5175 18.4052 28.4287 18.4354 28.3136 18.4354C28.2278 18.4354 28.1638 18.416 28.1201 18.3757C28.0787 18.3385 28.0441 18.282 28.0185 18.2099C27.9689 18.0759 27.9087 17.9016 27.8409 17.6901C27.7732 17.4794 27.701 17.2501 27.6257 17.0015H25.739ZM27.4157 16.3267C27.3096 15.9913 27.2095 15.6822 27.1132 15.4018C27.0169 15.1198 26.9198 14.8525 26.8182 14.5992C26.7933 14.5427 26.767 14.4784 26.7392 14.4009C26.7113 14.3273 26.6955 14.2824 26.6902 14.2669C26.685 14.2708 26.6677 14.3141 26.6413 14.3939C26.6127 14.4737 26.5864 14.5419 26.5615 14.5984C26.4614 14.8518 26.3636 15.1198 26.2695 15.401C26.177 15.6814 26.0769 15.9905 25.9723 16.326L27.4157 16.3267Z" fill="white"/>
<path d="M29.9755 16.4819C29.9506 16.4572 29.9265 16.4277 29.904 16.3967C29.8806 16.3673 29.8566 16.3301 29.8317 16.2891C29.7602 16.186 29.6857 16.0613 29.6014 15.9133C29.5179 15.7669 29.4351 15.6097 29.3516 15.4454C29.2688 15.2797 29.189 15.1123 29.1115 14.945C29.0325 14.7777 28.9617 14.622 28.9 14.4779C28.8361 14.3322 28.7826 14.2067 28.7375 14.1022C28.6908 13.9953 28.6622 13.9209 28.6539 13.8798C28.6441 13.8543 28.6381 13.8349 28.6351 13.8217C28.6336 13.8086 28.6313 13.7892 28.6313 13.7636C28.6313 13.6707 28.663 13.5924 28.7254 13.532C28.7894 13.4693 28.8752 13.4383 28.9866 13.4383C29.0867 13.4383 29.1582 13.4638 29.2018 13.5157C29.244 13.5684 29.2771 13.6203 29.2959 13.6715C29.3057 13.6986 29.3305 13.7536 29.3681 13.8411C29.4058 13.9302 29.4517 14.0379 29.5066 14.1665C29.5615 14.2951 29.6255 14.4376 29.6955 14.5925C29.7677 14.7482 29.8377 14.9001 29.9115 15.0504C29.9837 15.1999 30.0552 15.3424 30.123 15.4803C30.1907 15.6166 30.2554 15.729 30.3156 15.8173C30.412 15.667 30.5143 15.4788 30.6257 15.251C30.7356 15.0232 30.8417 14.7994 30.9418 14.5778C31.0426 14.3555 31.1292 14.1587 31.2029 13.9883C31.2752 13.8171 31.3188 13.7117 31.3354 13.6707C31.3557 13.6195 31.3866 13.5676 31.4295 13.515C31.4716 13.4638 31.5446 13.4375 31.6447 13.4375C31.7561 13.4375 31.8419 13.4685 31.9058 13.5312C31.9683 13.5917 31.9999 13.6699 31.9999 13.7629C31.9999 13.7884 31.9984 13.8078 31.9961 13.821C31.9939 13.8341 31.9871 13.8535 31.9788 13.8791C31.963 13.9201 31.9337 13.9945 31.8915 14.1045C31.8494 14.2122 31.7952 14.34 31.732 14.4841C31.6695 14.6282 31.5995 14.7854 31.522 14.9528C31.443 15.1216 31.3632 15.2874 31.2804 15.4532C31.1969 15.6174 31.1141 15.7762 31.0306 15.9257C30.9478 16.0752 30.8703 16.2023 30.8003 16.3053C30.7551 16.3719 30.7062 16.4324 30.6565 16.4827V18.0871C30.6565 18.1901 30.6257 18.2738 30.5617 18.3396C30.4993 18.4023 30.418 18.4364 30.3164 18.4364C30.2148 18.4364 30.1343 18.4031 30.071 18.3396C30.0071 18.2738 29.9762 18.1901 29.9762 18.0871L29.9755 16.4819Z" fill="white"/>
</svg>
