<svg width="38" height="38" viewBox="0 0 38 38" fill="none" xmlns="http://www.w3.org/2000/svg">
<path d="M18 20L23.19 17L18 14V20ZM29.56 12.17C29.69 12.64 29.78 13.27 29.84 14.07C29.91 14.87 29.94 15.56 29.94 16.16L30 17C30 19.19 29.84 20.8 29.56 21.83C29.31 22.73 28.73 23.31 27.83 23.56C27.36 23.69 26.5 23.78 25.18 23.84C23.88 23.91 22.69 23.94 21.59 23.94L20 24C15.81 24 13.2 23.84 12.17 23.56C11.27 23.31 10.69 22.73 10.44 21.83C10.31 21.36 10.22 20.73 10.16 19.93C10.09 19.13 10.06 18.44 10.06 17.84L10 17C10 14.81 10.16 13.2 10.44 12.17C10.69 11.27 11.27 10.69 12.17 10.44C12.64 10.31 13.5 10.22 14.82 10.16C16.12 10.09 17.31 10.06 18.41 10.06L20 10C24.19 10 26.8 10.16 27.83 10.44C28.73 10.69 29.31 11.27 29.56 12.17Z" fill="white"/>
</svg>
