<svg width="403" height="205" viewBox="0 0 403 205" fill="none" xmlns="http://www.w3.org/2000/svg">
<g filter="url(#filter0_d_1459_6139)">
<path d="M115.732 97.7953C113.129 97.7953 111.022 99.9003 111.022 102.5C111.022 105.1 113.129 107.205 115.732 107.205C118.334 107.205 120.442 105.1 120.442 102.5C120.442 99.9003 118.334 97.7953 115.732 97.7953ZM80.8408 54.5H59.3888C56.6916 54.5 54.5 56.6892 54.5 59.3837V80.8129C54.5 89.7646 58.9832 97.6795 65.816 102.463C58.9832 107.215 54.5 115.109 54.5 124.04V150.5H80.9883C95.4915 150.5 107.292 138.712 107.292 124.224V109.799C107.292 107.057 106.365 104.526 104.816 102.5C106.37 100.474 107.292 97.9426 107.292 95.2008V80.9234C107.292 66.3513 95.4283 54.5 80.8408 54.5ZM97.8095 124.229C97.8095 133.491 90.2655 141.033 80.9883 141.033H63.9827V124.045C63.9827 114.783 71.5267 107.242 80.8039 107.242H95.2439C96.6611 107.242 97.8095 108.394 97.8095 109.804V124.229ZM97.8095 95.2008C97.8095 96.6164 96.6558 97.7637 95.2439 97.7637H80.9514C71.5952 97.7637 63.9827 90.1593 63.9827 80.8129V63.9726H80.8408C90.197 63.9726 97.8095 71.5771 97.8095 80.9234V95.2008ZM346.445 90.0277C345.076 87.3754 343.148 85.2966 340.666 83.7863C338.185 82.2759 335.287 81.5181 331.979 81.5181C328.154 81.5181 325.304 82.1864 323.418 83.5284C321.532 84.8704 320.252 86.2807 319.567 87.7595H318.029V82.2022H307.414V124.619H318.198V103.068C318.198 99.132 319.109 96.0691 320.937 93.8746C322.765 91.6801 325.331 90.5803 328.639 90.5803C331.552 90.5803 333.791 91.3802 335.361 92.9747C336.931 94.5693 337.716 96.9638 337.716 100.158V124.613H348.5V99.3004C348.5 95.7639 347.815 92.6748 346.445 90.0224V90.0277ZM289.807 83.7863C286.726 81.9338 283.101 81.0076 278.934 81.0076C274.767 81.0076 271 81.9075 267.808 83.7021C264.61 85.4966 262.129 88.0332 260.359 91.3118C258.588 94.5903 257.703 98.4531 257.703 102.9V103.926C257.703 108.373 258.604 112.236 260.401 115.514C262.197 118.793 264.71 121.33 267.934 123.124C271.158 124.919 274.883 125.819 279.108 125.819C282.99 125.819 286.183 125.203 288.696 123.982C291.209 122.756 293.216 121.277 294.733 119.535C296.245 117.798 297.399 116.188 298.2 114.704L289.381 110.089C288.638 111.683 287.553 113.141 286.13 114.451C284.703 115.762 282.479 116.42 279.456 116.42C276.432 116.42 273.977 115.509 271.922 113.683C269.867 111.857 268.782 109.494 268.672 106.584H299.575V102.905C299.575 98.5741 298.721 94.7693 297.004 91.4907C295.292 88.2121 292.895 85.6492 289.813 83.7968L289.807 83.7863ZM268.751 98.5373C269.151 96.0849 270.205 94.122 271.917 92.6379C273.629 91.1539 275.942 90.4119 278.85 90.4119C281.758 90.4119 283.912 91.1539 285.656 92.6379C287.395 94.122 288.38 96.0902 288.612 98.5373H268.751ZM195.002 83.2337C193.548 84.0336 192.505 85.2861 191.878 86.9964H190.339V82.2075H179.724V124.624H190.508V100.511C190.508 97.49 191.393 95.2534 193.163 93.7957C194.933 92.3432 197.188 91.617 199.927 91.617H205.238V82.0391H200.101C198.163 82.0391 196.461 82.439 195.007 83.2337H195.002ZM241.904 83.7863C238.822 81.9338 235.198 81.0076 231.031 81.0076C226.864 81.0076 223.097 81.9075 219.904 83.7021C216.707 85.4966 214.225 88.0332 212.455 91.3118C210.685 94.5903 209.8 98.4531 209.8 102.9V103.926C209.8 108.373 210.701 112.236 212.497 115.514C214.294 118.793 216.807 121.33 220.031 123.124C223.255 124.919 226.979 125.819 231.205 125.819C235.087 125.819 238.28 125.203 240.793 123.982C243.305 122.756 245.313 121.277 246.83 119.535C248.342 117.798 249.496 116.188 250.296 114.704L241.477 110.089C240.735 111.683 239.649 113.141 238.227 114.451C236.799 115.762 234.576 116.42 231.552 116.42C228.528 116.42 226.073 115.509 224.019 113.683C221.964 111.857 220.879 109.494 220.768 106.584H251.671V102.905C251.671 98.5741 250.818 94.7693 249.1 91.4907C247.388 88.2121 244.991 85.6492 241.909 83.7968L241.904 83.7863ZM220.847 98.5373C221.248 96.0849 222.301 94.122 224.013 92.6379C225.726 91.1539 228.038 90.4119 230.946 90.4119C233.854 90.4119 236.009 91.1539 237.753 92.6379C239.491 94.122 240.476 96.0902 240.708 98.5373H220.847ZM158.978 87.3385H157.44C156.528 85.8545 155.069 84.4336 153.072 83.0653C151.076 81.697 148.136 81.0129 144.254 81.0129C140.771 81.0129 137.563 81.8549 134.623 83.5337C131.684 85.2177 129.329 87.6385 127.559 90.8013C125.789 93.9641 124.904 97.7689 124.904 102.216V103.584C124.904 108.031 125.789 111.836 127.559 114.999C129.329 118.161 131.684 120.588 134.623 122.266C137.563 123.95 140.771 124.787 144.254 124.787C146.877 124.787 149.048 124.477 150.76 123.845C152.472 123.219 153.842 122.435 154.869 121.493C155.896 120.551 156.697 119.624 157.266 118.714H158.804V129.744C158.804 131.455 158.003 132.307 156.407 132.307H131.752V141.711H160.174C163.029 141.711 165.31 140.843 167.023 139.101C168.735 137.359 169.593 135.039 169.593 132.134V82.2075H158.978V87.3385ZM158.978 103.326C158.978 107.147 157.866 110.11 155.638 112.22C153.415 114.33 150.644 115.383 147.335 115.383C144.027 115.383 141.256 114.33 139.033 112.22C136.81 110.11 135.693 107.147 135.693 103.326V102.474C135.693 98.5952 136.804 95.6218 139.033 93.5378C141.261 91.4591 144.027 90.4171 147.335 90.4171C150.644 90.4171 153.483 91.4591 155.68 93.5378C157.877 95.6218 158.978 98.6004 158.978 102.474V103.326Z" fill="white"/>
</g>
<defs>
<filter id="filter0_d_1459_6139" x="0" y="0" width="403" height="205" filterUnits="userSpaceOnUse" color-interpolation-filters="sRGB">
<feFlood flood-opacity="0" result="BackgroundImageFix"/>
<feColorMatrix in="SourceAlpha" type="matrix" values="0 0 0 0 0 0 0 0 0 0 0 0 0 0 0 0 0 0 127 0" result="hardAlpha"/>
<feOffset/>
<feGaussianBlur stdDeviation="27.25"/>
<feComposite in2="hardAlpha" operator="out"/>
<feColorMatrix type="matrix" values="0 0 0 0 0 0 0 0 0 0 0 0 0 0 0 0 0 0 0.45 0"/>
<feBlend mode="normal" in2="BackgroundImageFix" result="effect1_dropShadow_1459_6139"/>
<feBlend mode="normal" in="SourceGraphic" in2="effect1_dropShadow_1459_6139" result="shape"/>
</filter>
</defs>
</svg>
